<svg width="97" height="97" viewBox="0 0 97 97" fill="none" xmlns="http://www.w3.org/2000/svg">
    <path opacity="0.965"
        d="M46.2179 1.78877C47.9249 1.40377 49.622 1.36225 51.3127 1.66264L80.7296 13.9518C82.4357 15.1805 83.7759 16.7385 84.7535 18.6316C88.3759 27.7784 92.0772 36.9002 95.8576 45.9969C96.322 47.7682 96.3938 49.5383 96.0748 51.3122L83.7205 80.8851C82.7124 82.2031 81.4954 83.3161 80.0669 84.2252C70.9436 88.1058 61.7826 91.9127 52.5838 95.6458C50.5487 96.2819 48.4971 96.424 46.4226 96.0738L17.0056 83.7847C15.6037 82.7931 14.4405 81.5566 13.5146 80.0717L1.78877 51.5194C1.40349 49.8103 1.36201 48.1132 1.66259 46.4246L13.9526 17.0056C14.9426 15.605 16.1789 14.4417 17.6655 13.5146L46.2179 1.78877Z"
        fill="#22223E" stroke="#F2994A" />
</svg>
    