<svg width="97" height="97" viewBox="0 0 97 97" fill="none" xmlns="http://www.w3.org/2000/svg">
    <g opacity="0.965" filter="url(#filter0_b_39_347)">
        <path
            d="M80.9748 13.5123L51.455 1.18021C49.6659 0.854769 47.8696 0.898129 46.0665 1.31042L17.437 13.0679C15.8629 14.0432 14.5547 15.2748 13.5123 16.7625L1.18019 46.2823C0.85451 48.0694 0.897869 49.8656 1.3104 51.6708L13.0679 80.3002C14.0419 81.8726 15.2735 83.181 16.7624 84.2249L46.2823 96.5571C48.4615 96.934 50.6183 96.7873 52.7528 96.1168C61.9732 92.3751 71.1557 88.5592 80.3002 84.6693C81.8111 83.7134 83.0968 82.536 84.1572 81.137L96.557 51.455C96.9025 49.5792 96.8276 47.7063 96.3324 45.8365C92.5454 36.7244 88.8377 27.587 85.2092 18.4246C84.1861 16.435 82.7746 14.7975 80.9748 13.5123Z"
            fill="#23233F" />
        <path
            d="M46.2179 1.78877C47.9249 1.40377 49.622 1.36225 51.3127 1.66264L80.7296 13.9518C82.4357 15.1805 83.7759 16.7385 84.7535 18.6316C88.3759 27.7784 92.0772 36.9002 95.8576 45.9969C96.322 47.7682 96.3938 49.5383 96.0748 51.3122L83.7205 80.8851C82.7124 82.2031 81.4954 83.3161 80.0669 84.2252C70.9436 88.1058 61.7826 91.9127 52.5838 95.6458C50.5487 96.2819 48.4971 96.424 46.4226 96.0738L17.0056 83.7847C15.6037 82.7931 14.4405 81.5566 13.5146 80.0717L1.78877 51.5194C1.40349 49.8103 1.36201 48.1132 1.66259 46.4246L13.9526 17.0056C14.9426 15.605 16.1789 14.4417 17.6655 13.5146L46.2179 1.78877Z"
            stroke="#54A6F2" />
    </g>
    <defs>
        <filter id="filter0_b_39_347" x="-3.03536" y="-3.03516" width="103.805" height="103.796"
            filterUnits="userSpaceOnUse" color-interpolation-filters="sRGB">
            <feFlood flood-opacity="0" result="BackgroundImageFix" />
            <feGaussianBlur in="BackgroundImageFix" stdDeviation="2" />
            <feComposite in2="SourceAlpha" operator="in" result="effect1_backgroundBlur_39_347" />
            <feBlend mode="normal" in="SourceGraphic" in2="effect1_backgroundBlur_39_347"
                result="shape" />
        </filter>
    </defs>
</svg>