<svg width="116" height="123" viewBox="0 0 116 123" fill="none" xmlns="http://www.w3.org/2000/svg">
<path d="M88.5646 95.0029C88.7127 95.0018 88.8619 95 89.0119 95L90.964 95.0078C93.1165 95.0079 94.821 95.666 95.9318 97.0752C96.9413 98.356 97.3323 100.1 97.3224 102.093L97.3146 102.495C97.2171 105.726 95.8304 107.81 93.9943 109.049C92.2194 110.246 90.1134 110.596 88.5646 110.599V110.6H26.7287L26.7228 110.601H26.6437C25.0932 110.6 22.9776 110.252 21.1955 109.05C19.3594 107.812 17.9729 105.727 17.8752 102.496L17.8674 102.094C17.8575 100.101 18.2487 98.357 19.258 97.0762C20.3689 95.667 22.0733 95.0089 24.2258 95.0088L26.1779 95.001C26.3181 95.001 26.4574 95.003 26.5959 95.0039V95H88.5646V95.0029ZM26.3713 109.597L26.5959 109.6V109.599C26.5062 109.598 26.4146 109.597 26.3215 109.594C26.3381 109.594 26.3547 109.596 26.3713 109.597ZM88.9533 109.588C88.8205 109.594 88.6908 109.597 88.5646 109.598V109.599L88.8185 109.596C88.8631 109.594 88.908 109.59 88.9533 109.588ZM96.3146 102.464C96.3093 102.642 96.3 102.816 96.2863 102.986L96.3156 102.464C96.3215 102.273 96.3233 102.086 96.3215 101.903L96.3146 102.464ZM18.8703 101.736C18.8651 101.973 18.8665 102.216 18.8742 102.465C18.8796 102.644 18.8896 102.818 18.9035 102.988L18.8752 102.465C18.8637 102.091 18.8658 101.731 18.883 101.387L18.8703 101.736ZM91.3215 96.0146C91.4471 96.0195 91.5701 96.027 91.6906 96.0371L91.3224 96.0146L90.964 96.0078L91.3215 96.0146Z" fill="#E1D9DC"/>
<path d="M88.5646 25.0029C88.7127 25.0018 88.8619 25 89.0119 25L90.964 25.0078C93.1165 25.0079 94.821 25.666 95.9318 27.0752C96.9413 28.356 97.3323 30.0997 97.3224 32.0928L97.3146 32.4951C97.2171 35.7265 95.8304 37.8105 93.9943 39.0488C92.2194 40.2458 90.1134 40.5957 88.5646 40.5986V40.5996H26.7287L26.7228 40.6006H26.6437C25.0932 40.6005 22.9776 40.2516 21.1955 39.0498C19.3594 37.8116 17.9729 35.7273 17.8752 32.4961L17.8674 32.0938C17.8575 30.1008 18.2487 28.357 19.258 27.0762C20.3689 25.667 22.0733 25.0089 24.2258 25.0088L26.1779 25.001C26.3181 25.001 26.4574 25.003 26.5959 25.0039V25H88.5646V25.0029ZM26.3713 39.5967L26.5959 39.5996V39.5986C26.5062 39.5981 26.4146 39.597 26.3215 39.5938C26.3381 39.5943 26.3547 39.5962 26.3713 39.5967ZM88.9533 39.5879C88.8205 39.5935 88.6908 39.5974 88.5646 39.5977V39.5986L88.8185 39.5957C88.8631 39.5944 88.908 39.5899 88.9533 39.5879ZM96.3146 32.4639C96.3093 32.6422 96.3 32.8164 96.2863 32.9863L96.3156 32.4639C96.3215 32.2732 96.3233 32.0863 96.3215 31.9033L96.3146 32.4639ZM18.8703 31.7363C18.8651 31.9726 18.8665 32.2155 18.8742 32.4648C18.8796 32.6436 18.8896 32.818 18.9035 32.9883L18.8752 32.4648C18.8637 32.0908 18.8658 31.7312 18.883 31.3867L18.8703 31.7363ZM91.3215 26.0146C91.4471 26.0195 91.5701 26.027 91.6906 26.0371L91.3224 26.0146L90.964 26.0078L91.3215 26.0146Z" fill="#E1D9DC"/>
<path d="M100.8 57.9785C101.136 57.974 101.477 57.9708 101.823 57.9707L104.545 57.9814C107.454 57.9814 109.696 58.8316 111.154 60.6113C112.494 62.2472 113.034 64.5051 113.021 67.1475L113.011 67.6807C112.878 71.9281 110.991 74.6235 108.537 76.2158C106.14 77.7715 103.28 78.2285 101.171 78.2285H101.096L101.022 78.2178C100.948 78.2066 100.874 78.198 100.8 78.1885V78.2295H15.1399V78.1953C15.0806 78.2032 15.0212 78.2098 14.9622 78.2188L14.8879 78.2295H14.8127C12.7044 78.2295 9.8438 77.7724 7.44653 76.2168C4.99316 74.6246 3.10603 71.9288 2.9729 67.6816L2.96313 67.1484C2.94977 64.5063 3.4905 62.2482 4.83032 60.6123C6.2882 58.8326 8.53018 57.9824 11.4387 57.9824L14.1614 57.9717C14.4915 57.9717 14.8181 57.9754 15.1399 57.9795V57.9707H100.8V57.9785ZM14.4319 77.2246L14.8127 77.2295C14.6456 77.2295 14.4738 77.2254 14.2981 77.2188C14.343 77.2205 14.3875 77.2234 14.4319 77.2246ZM10.4729 59.0166C10.3906 59.0229 10.3094 59.0321 10.2288 59.04C10.3423 59.0289 10.4576 59.0189 10.5745 59.0107L10.4729 59.0166Z" fill="#E1D9DC"/>
<ellipse cx="57.502" cy="68" rx="19.5" ry="18" fill="#E1DBDD"/>
<path d="M57.707 49.5762C67.7813 49.5762 75.949 57.743 75.9492 67.8174C75.9492 77.892 67.7815 86.0596 57.707 86.0596C47.6327 86.0594 39.4658 77.8919 39.4658 67.8174C39.4661 57.7431 47.6328 49.5763 57.707 49.5762Z" stroke="#F77199" stroke-width="3"/>
<path d="M57.707 48.376C68.4441 48.376 77.1482 57.0803 77.1484 67.8174C77.1484 78.5547 68.4442 87.2598 57.707 87.2598C46.9699 87.2596 38.2656 78.5546 38.2656 67.8174C38.2659 57.0803 46.9701 48.3761 57.707 48.376Z" stroke="#EBD0D8" stroke-width="0.6"/>
<path d="M112.316 60.2096C110.04 57.8049 106.877 56.4753 103.584 56.566H102.534C104.763 54.8507 106.209 52.1519 106.209 49.1128C106.209 43.94 102.037 39.7313 96.9089 39.7313H96.4194C98.3189 38.1635 99.5355 35.781 99.5355 33.117C99.5355 28.407 95.7394 24.5743 91.0719 24.5743H87.423C85.9543 22.4107 79.0594 13.896 61.1695 12.8923V1.96418C61.1695 1.43195 60.7396 1 60.2077 1C59.6759 1 59.246 1.43195 59.246 1.96418V12.8142C58.2313 12.7929 57.1878 12.7929 56.1693 12.8142V1.96418C56.1693 1.43195 55.7393 1 55.2075 1C54.6756 1 54.2457 1.43195 54.2457 1.96418V12.8932C36.3558 13.895 29.4609 22.4107 27.9922 24.5743H24.3433C19.6758 24.5743 15.8797 28.407 15.8797 33.117C15.8797 35.781 17.0954 38.1635 18.9958 39.7313H18.5053C13.3772 39.7313 9.20501 43.94 9.20501 49.1128C9.20501 52.1529 10.6515 54.8507 12.8799 56.566H11.8557C8.54235 56.4734 5.37332 57.804 3.09777 60.2086C0.911662 62.5188 -0.206878 65.5628 0.0316412 68.5604C0.490406 74.2404 5.55894 78.7104 11.4017 78.7104C11.5431 78.7104 11.6864 78.7075 11.8287 78.7027H12.878C10.6496 80.418 9.20309 83.1167 9.20309 86.1558C9.20309 91.3345 13.3753 95.547 18.5034 95.547H18.9901C17.0906 97.1147 15.8778 99.4972 15.8778 102.161C15.8778 106.867 19.6739 110.694 24.3414 110.694H27.9894C29.5532 113 37.2272 122.487 57.7071 122.487C78.1871 122.487 85.8611 113 87.423 110.695H91.071C95.7384 110.695 99.5345 106.867 99.5345 102.162C99.5345 99.4982 98.3189 97.1157 96.4184 95.548H96.908C102.036 95.548 106.208 91.3345 106.208 86.1568C106.208 83.1167 104.762 80.4189 102.533 78.7036H103.548C103.692 78.7085 103.836 78.7114 103.979 78.7114C109.853 78.7114 114.924 74.2404 115.381 68.5604C115.62 65.5628 114.502 62.5198 112.316 60.2096ZM17.8023 33.117C17.8023 29.4695 20.7366 26.5027 24.3423 26.5027H57.7071H91.071C94.6766 26.5027 97.611 29.4695 97.611 33.117C97.611 36.7645 94.6766 39.7313 91.071 39.7313H24.3423C20.7366 39.7313 17.8023 36.7645 17.8023 33.117ZM71.7317 58.0981C73.9322 61.1227 75.096 64.7133 75.096 68.4833C75.096 71.5195 74.314 74.5143 72.8319 77.1532C72.7867 77.2121 72.7483 77.2766 72.7175 77.3461C69.6033 82.7118 63.8596 86.0411 57.7071 86.0411C51.5152 86.0411 45.7446 82.6761 42.6429 77.2593C41.1224 74.6059 40.3183 71.5716 40.3183 68.4833C40.3183 64.7133 41.4821 61.1227 43.6826 58.0981C46.9526 53.6011 52.1962 50.9158 57.7071 50.9158C63.2181 50.9158 68.4607 53.6011 71.7317 58.0981ZM18.5073 76.7753H18.5053C18.5025 76.7753 18.4986 76.7753 18.4986 76.7753H11.7951C6.765 76.9575 2.33797 73.2088 1.95134 68.4062C1.7561 65.9542 2.68324 63.4493 4.49426 61.5363C6.39664 59.5279 9.07614 58.4288 11.8316 58.4943H41.131C39.3421 61.5045 38.3957 64.9206 38.3957 68.4833C38.3957 71.3614 39.0334 74.1951 40.2366 76.7753H18.5073ZM97.611 102.162C97.611 105.804 94.6766 108.767 91.071 108.767H24.3423C20.7366 108.767 17.8023 105.804 17.8023 102.162C17.8023 98.5147 20.7366 95.548 24.3423 95.548H91.071C94.6766 95.548 97.611 98.5147 97.611 102.162ZM113.463 68.4062C113.076 73.2088 108.654 76.9729 103.584 76.7753H75.1767C76.3809 74.1884 77.0195 71.3537 77.0195 68.4833C77.0195 64.9206 76.0731 61.5045 74.2842 58.4943H96.9089H103.611C106.365 58.4288 109.02 59.5279 110.922 61.5373C112.732 63.4502 113.659 65.9542 113.463 68.4062Z" fill="url(#paint0_radial_497_2976)"/>
<path d="M18.502 40.0001C12.502 39.0001 5.00204 49.5001 13.502 56.5002" stroke="#E1DADC" stroke-width="2" stroke-linecap="round" stroke-linejoin="round"/>
<path d="M18.502 95.4999C12.502 96.4999 5.00204 85.9999 13.502 78.9998" stroke="#E1DADC" stroke-width="2" stroke-linecap="round" stroke-linejoin="round"/>
<path d="M97.0019 40.0665C103.002 39.0666 110.502 49.5665 102.002 56.5666" stroke="#E1DADC" stroke-width="2" stroke-linecap="round" stroke-linejoin="round"/>
<path d="M97.0019 95.4999C103.002 96.4999 110.502 85.9999 102.002 78.9998" stroke="#E1DADC" stroke-width="2" stroke-linecap="round" stroke-linejoin="round"/>
<path d="M29.502 24.0006C35.002 15.5005 65.502 5.00057 86.002 24.0006" stroke="#E1DADC" stroke-width="2" stroke-linecap="round"/>
<path d="M29.002 111C34.502 119.5 65.002 130 85.502 111" stroke="#D9D9D9" stroke-width="2" stroke-linecap="round"/>
<path d="M56 1C56 0.447715 55.5523 0 55 0C54.4477 0 54 0.447715 54 1H56ZM61 1C61 0.447715 60.5523 0 60 0C59.4477 0 59 0.447715 59 1H61ZM55 13H56V1H55H54V13H55ZM60 13H61V1H60H59V13H60Z" fill="#E1DADC"/>
<defs>
<radialGradient id="paint0_radial_497_2976" cx="0" cy="0" r="1" gradientUnits="userSpaceOnUse" gradientTransform="translate(57.7081 67.1564) rotate(-141.982) scale(49.4253 48.8615)">
<stop stop-color="#F77199"/>
<stop offset="0.187938" stop-color="#CE4A71"/>
<stop offset="0.345195" stop-color="#F16E96"/>
<stop offset="0.395342" stop-color="#CE4A71"/>
<stop offset="0.490385" stop-color="#932970"/>
<stop offset="0.533654" stop-color="#932970"/>
<stop offset="0.600962" stop-color="#440755"/>
</radialGradient>
</defs>
</svg>
