<svg xmlns="http://www.w3.org/2000/svg" viewBox="0 0 400 400" width="400" height="400">
  <!-- Background Circle -->
  <circle cx="200" cy="200" r="180" fill="#4F46E5" opacity="0.1"/>
  
  <!-- Outer Ring (represents holistic/complete) -->
  <circle cx="200" cy="200" r="160" fill="none" stroke="#4F46E5" stroke-width="3" opacity="0.3"/>
  
  <!-- Interconnected Nodes (represents integration) -->
  <g id="nodes">
    <!-- Center node -->
    <circle cx="200" cy="200" r="20" fill="#4F46E5"/>
    
    <!-- Top node -->
    <circle cx="200" cy="100" r="15" fill="#06B6D4"/>
    <line x1="200" y1="180" x2="200" y2="115" stroke="#4F46E5" stroke-width="2"/>
    
    <!-- Right node -->
    <circle cx="280" cy="200" r="15" fill="#06B6D4"/>
    <line x1="220" y1="200" x2="265" y2="200" stroke="#4F46E5" stroke-width="2"/>
    
    <!-- Bottom node -->
    <circle cx="200" cy="300" r="15" fill="#06B6D4"/>
    <line x1="200" y1="220" x2="200" y2="285" stroke="#4F46E5" stroke-width="2"/>
    
    <!-- Left node -->
    <circle cx="120" cy="200" r="15" fill="#06B6D4"/>
    <line x1="180" y1="200" x2="135" y2="200" stroke="#4F46E5" stroke-width="2"/>
    
    <!-- Top-right node -->
    <circle cx="260" cy="140" r="12" fill="#10B981"/>
    <line x1="215" y1="185" x2="248" y2="152" stroke="#4F46E5" stroke-width="1.5"/>
    
    <!-- Top-left node -->
    <circle cx="140" cy="140" r="12" fill="#10B981"/>
    <line x1="185" y1="185" x2="152" y2="152" stroke="#4F46E5" stroke-width="1.5"/>
    
    <!-- Bottom-right node -->
    <circle cx="260" cy="260" r="12" fill="#10B981"/>
    <line x1="215" y1="215" x2="248" y2="248" stroke="#4F46E5" stroke-width="1.5"/>
    
    <!-- Bottom-left node -->
    <circle cx="140" cy="260" r="12" fill="#10B981"/>
    <line x1="185" y1="215" x2="152" y2="248" stroke="#4F46E5" stroke-width="1.5"/>
  </g>
  
  <!-- Letter H in center (abstract) -->
  <g id="h-letter" transform="translate(200, 200)">
    <rect x="-25" y="-35" width="8" height="70" fill="white" rx="2"/>
    <rect x="17" y="-35" width="8" height="70" fill="white" rx="2"/>
    <rect x="-25" y="-4" width="50" height="8" fill="white" rx="2"/>
  </g>
</svg>

