<?xml version="1.0" encoding="UTF-8" standalone="no"?>
<svg
   width="195.99989"
   height="196.9998"
   viewBox="0 0 195.99989 196.9998"
   fill="none"
   version="1.1"
   xmlns="http://www.w3.org/2000/svg"
   xmlns:svg="http://www.w3.org/2000/svg">
  <path
     d="m 195.9999,98.4998 c 0,54.4 -43.876,98.5 -98,98.5 C 43.8761,196.9998 0,152.8998 0,98.4998 0,44.0999 43.8761,0 97.9999,0 c 54.124,0 98,44.0999 98,98.4998 z"
     fill="url(#paint0_linear_4934_47812)"
     id="path1"
     style="fill:url(#paint0_linear_4934_47812)" />
  <path
     d="m 186.9999,99.499803 c 0,48.876997 -39.847,88.499997 -89,88.499997 C 48.8466,187.9998 9,148.3768 9,99.499803 9,50.6228 48.8466,11 97.9999,11 c 49.153,0 89,39.6228 89,88.499803 z"
     fill="#260c36"
     id="path2" />
  <path
     d="m 114.9979,45 4,130.9998"
     stroke="url(#paint1_linear_4934_47812)"
     stroke-width="4"
     stroke-linecap="round"
     stroke-dasharray="8, 8"
     id="path3"
     style="stroke:url(#paint1_linear_4934_47812)" />
  <g
     filter="url(#filter0_d_4934_47812)"
     id="g4"
     transform="translate(-30.8301,-42.8672)">
    <path
       d="m 147.112,82.845 c -0.383,-0.6272 -0.574,-0.9407 -0.752,-1.1149 -0.837,-0.8213 -2.198,-0.749 -2.944,0.1562 -0.158,0.1921 -0.315,0.5241 -0.629,1.1882 l -7.712,16.3173 c -0.335,0.7092 -0.503,1.0642 -0.551,1.3162 -0.225,1.19 0.652,2.305 1.862,2.368 0.255,0.014 0.64,-0.065 1.408,-0.223 l 8.001,-1.645 c 0.079,-0.016 0.119,-0.024 0.158,-0.031 0.177,-0.029 0.357,-0.034 0.535,-0.015 0.04,0.004 0.08,0.01 0.16,0.022 l 7.606,1.119 c 0.819,0.12 1.229,0.181 1.489,0.151 1.234,-0.142 2.042,-1.362 1.69,-2.5536 -0.074,-0.2511 -0.29,-0.6048 -0.721,-1.3121 z"
       fill="url(#paint2_linear_4934_47812)"
       id="path4"
       style="fill:url(#paint2_linear_4934_47812)" />
  </g>
  <ellipse
     cx="119.4979"
     cy="183.9998"
     rx="8.5"
     ry="8"
     fill="#a33169"
     id="ellipse4" />
  <path
     d="m 35.4001,44.0036 -1.9975,0.0999 0.1997,3.995 1.9976,-0.0999 z M 60,51.0006 58.5202,52.3461 Z m 16.4999,30.0002 1.012,-1.725 z m 37.5,16.518 -1.764,0.942 0.561,1.049003 1.189,0.009 z m 18,23.481 -1.655,1.123 0.101,0.149 0.126,0.128 z m 19.588,11.457 c 1.081,0.228 2.142,-0.464 2.369,-1.545 0.228,-1.081 -0.464,-2.141 -1.545,-2.369 z M 41.0952,48.0174 c 1.1038,0.0416 2.0323,-0.8195 2.0738,-1.9233 0.0416,-1.1038 -0.8195,-2.0323 -1.9233,-2.0738 z M 55.809,46.269 c -1.0433,-0.3627 -2.1831,0.1891 -2.5458,1.2325 -0.3627,1.0433 0.1891,2.1831 1.2325,2.5458 z m 5.1433,8.7512 c 0.7356,0.824 1.9999,0.8957 2.8239,0.1601 0.824,-0.7356 0.8956,-1.9999 0.16,-2.8239 z m 6.5629,6.8476 c 0,-1.104 -0.8954,-2 -1.9999,-2 -1.1046,0 -2.0001,0.895 -2.0001,2 z m -3.7184,8.558 c 0.1513,1.094 1.161,1.859 2.2552,1.707 1.0941,-0.151 1.8584,-1.161 1.707,-2.255 z m 9.3561,6.71 c -1.005,-0.459 -2.192,-0.017 -2.651,0.988 -0.459,1.004 -0.017,2.191 0.987,2.65 z m 7.633,7.297 c 1.093,0.16 2.108,-0.597 2.268,-1.69 0.16,-1.093 -0.597,-2.108 -1.69,-2.268 z m 12.537,-3.254 c -1.099,-0.111 -2.08,0.69 -2.191,1.789 -0.111,1.099 0.69,2.08 1.789,2.191 z m 8.225,6.225 c 0.995,0.479 2.19,0.06 2.67,-0.935 0.479,-0.995 0.06,-2.19 -0.935,-2.669 z m 11.525,4.832 c -0.646,-0.896 -1.896,-1.098 -2.792,-0.452 -0.896,0.646 -1.098,1.897 -0.451,2.792 z m 2.513,8.291 c 0.83,0.729 2.094,0.646 2.822,-0.184 0.729,-0.829997 0.646,-2.094 -0.184,-2.823 z m 8.282,3.779 c -0.631,-0.907 -1.877,-1.132 -2.784,-0.502 -0.907,0.631 -1.132,1.877 -0.502,2.784 z m 0.31,7.793 c 0.584,0.938 1.817,1.225 2.755,0.642 0.938,-0.584 1.225,-1.817 0.641,-2.755 z m 7.749,5.043 c -0.576,-0.943 -1.806,-1.242 -2.749,-0.667 -0.943,0.575 -1.242,1.806 -0.667,2.749 z m 2.386,8.95 c 0.804,0.758 2.069,0.722 2.827,-0.082 0.758,-0.803 0.722,-2.069 -0.082,-2.827 z m 12.551,1.872 c -1.104,0.003 -1.998,0.9 -1.995,2.005 0.003,1.104 0.9,1.998 2.005,1.995 z M 35.5,46.0011 l 0.0999,1.9975 c 0.5273,-0.0263 2.6677,-0.0877 5.4953,0.0188 l 0.0752,-1.9986 0.0753,-1.9985 c -2.9411,-0.1108 -5.1984,-0.049 -5.8456,-0.0167 z m 19.6523,2.157 -0.6566,1.8892 c 1.8953,0.6588 3.2486,1.4454 4.0245,2.2988 L 60,51.0006 61.4798,49.6552 C 60.0511,48.0838 57.9692,47.0199 55.809,46.269 Z M 60,51.0006 58.5202,52.3461 c 0.993,1.0921 1.7764,1.9396 2.4321,2.6741 l 1.492,-1.3319 1.4919,-1.3319 C 63.266,51.6056 62.4399,50.7112 61.4798,49.6552 Z m 5.5152,10.8672 h -2 c 0,0.491 -0.0038,1.028 -0.0076,1.634 -0.0038,0.603 -0.0076,1.267 -0.0076,1.999 h 2 2 c 0,-0.718 0.0037,-1.372 0.0075,-1.974 0.0038,-0.599 0.0077,-1.153 0.0077,-1.659 z M 65.5,65.5008 h -2 c 0,1.872 0.0996,3.5 0.2968,4.925 l 1.9811,-0.274 1.9811,-0.274 C 67.5927,68.6758 67.5,67.2368 67.5,65.5008 Z m 6.8209,13.454 -0.832,1.819 c 1.364,0.623 2.64,1.155 3.999,1.952 l 1.012,-1.725 1.012,-1.725 c -1.587,-0.931 -3.136,-1.58 -4.359,-2.14 z m 4.179,2.046 -1.012,1.725 c 1.625,0.954 3.45,1.437 5.298,1.707 l 0.289,-1.979 0.289,-1.979 c -1.572,-0.229 -2.838,-0.604 -3.852,-1.199 z m 16.622,2.168 -0.201,1.99 c 2.933,0.296 5.841,0.903 8.627,2.245 l 0.868,-1.802 0.867,-1.802 c -3.348004,-1.613 -6.755,-2.297 -9.96,-2.621 z m 18.329,10.237 -1.621,1.17 c 0.824,1.143 1.629,2.432 2.406,3.885 l 1.764,-0.942 1.764,-0.943 c -0.855,-1.6 -1.754,-3.042 -2.691,-4.34 z m 2.549,4.113 -0.014,2.000003 c -0.005,-0.001 0.131,0.003 0.443,0.168 0.306,0.162 0.692,0.431997 1.157,0.839997 l 1.319,-1.503 1.319,-1.504 c -1.128,-0.99 -2.594,-1.99 -4.21,-2.001 z m 8.225,7.928 -1.643,1.141 c 1.211,1.743 2.429,3.636 3.596,5.511 l 1.698,-1.056 1.698,-1.057 c -1.185,-1.905 -2.442,-3.86 -3.706,-5.68 z m 7.994,12.736 -1.708,1.041 c 0.692,1.135 1.317,2.138 1.834,2.899 l 1.655,-1.123 1.655,-1.123 c -0.457,-0.674 -1.038,-1.604 -1.728,-2.735 z m 1.781,2.817 -1.428,1.4 c 1.41,1.438 2.645,2.659 3.741,3.692 l 1.373,-1.454 1.372,-1.455 c -1.047,-0.988 -2.244,-2.169 -3.63,-3.583 z m 14.869,8.964 0.005,2 c 1.196,-0.003 2.649,0.059 4.714,0.493 l 0.412,-1.957 0.412,-1.957 c -2.402,-0.506 -4.144,-0.583 -5.548,-0.579 z"
     fill="url(#paint3_linear_4934_47812)"
     id="path5"
     style="fill:url(#paint3_linear_4934_47812)" />
  <ellipse
     cx="26.5"
     cy="46.000004"
     rx="6.5"
     ry="8"
     fill="#5297df"
     id="ellipse5" />
  <ellipse
     cx="171.49989"
     cy="49.000004"
     rx="6.5"
     ry="8"
     fill="#bd9922"
     id="ellipse6" />
  <g
     filter="url(#filter1_d_4934_47812)"
     id="g6"
     transform="translate(-30.8301,-42.8672)">
    <path
       d="m 54.8301,155.767 1.301,-45.705 c 0,-3.116 4.7706,3.128 4.7706,5.855 l -1.3011,14.778 v 25.072 c -0.2891,2.724 -4.7705,2.724 -4.7705,0 z"
       fill="#f7e1fe"
       id="path6" />
  </g>
  <g
     filter="url(#filter2_d_4934_47812)"
     id="g7"
     transform="translate(-30.8301,-42.8672)">
    <path
       d="m 57.4305,132.388 16.0478,1.15 c 1.1439,-0.003 1.7042,3.449 0.7034,3.451 l -7.5737,0.016 -9.7184,0.021 c -1.0009,-0.253 -0.4594,-4.636 0.5409,-4.638 z"
       fill="url(#paint4_linear_4934_47812)"
       id="path7"
       style="fill:url(#paint4_linear_4934_47812)" />
  </g>
  <g
     filter="url(#filter3_d_4934_47812)"
     id="g8"
     transform="translate(-30.8301,-42.8672)">
    <path
       d="m 73.4785,157.17 v -47.109 c 0,-3.117 3.4695,-2.727 3.4695,0 v 20.633 l 1.301,25.838 c -0.2891,2.725 -4.7705,3.363 -4.7705,0.638 z"
       fill="#f7e1fe"
       id="path8" />
  </g>
  <g
     filter="url(#filter4_d_4934_47812)"
     id="g10"
     transform="translate(-30.8301,-42.8672)">
    <path
       d="m 82.8301,155.882 v -44.433 c 0,-1.111 0.8004,-1.481 1.7959,-1.481 1.3469,0 1.7959,1.111 1.7959,1.481 v 43.172 l 13.4694,-0.773 c 0,0 2.2987,-39.923 0,-43.88 -2.2988,-3.957 -11.3143,-0.741 -11.6735,-0.741 -0.4489,0 -2.6938,0 -2.6938,-1.481 0,-1.185 1.9455,-2.247 2.6938,-2.247 2.9723,-1.146 2.5772,-0.383 4.7323,-0.383 2.1551,0 8.3599,-0.381 10.1199,3.065 0,0 0.88,1.149 1.32,2.68 0.44,1.532 0.44,2.367 0.44,2.367 -0.299,14.071 0,40.876 0,42.654 0,1.777 -1.365,3.497 -4.041,3.769 -7.6324,0.773 -13.1099,-0.774 -15.265,-0.774 -2.1551,0 -2.6939,-2.255 -2.6939,-2.995 z"
       fill="url(#paint5_linear_4934_47812)"
       id="path9"
       style="fill:url(#paint5_linear_4934_47812)" />
    <path
       d="m 82.8301,155.882 v -44.433 c 0,-1.111 0.8004,-1.481 1.7959,-1.481 1.3469,0 1.7959,1.111 1.7959,1.481 v 43.172 l 13.4694,-0.773 c 0,0 2.2987,-39.923 0,-43.88 -2.2988,-3.957 -11.3143,-0.741 -11.6735,-0.741 -0.4489,0 -2.6938,0 -2.6938,-1.481 0,-1.185 1.9455,-2.247 2.6938,-2.247 2.9723,-1.146 2.5772,-0.383 4.7323,-0.383 2.1551,0 8.3599,-0.381 10.1199,3.065 0,0 0.88,1.149 1.32,2.68 0.44,1.532 0.44,2.367 0.44,2.367 -0.299,14.071 0,40.876 0,42.654 0,1.777 -1.365,3.497 -4.041,3.769 -7.6324,0.773 -13.1099,-0.774 -15.265,-0.774 -2.1551,0 -2.6939,-2.255 -2.6939,-2.995 z"
       stroke="url(#paint6_linear_4934_47812)"
       stroke-width="0.3"
       id="path10"
       style="stroke:url(#paint6_linear_4934_47812)" />
  </g>
  <g
     filter="url(#filter5_d_4934_47812)"
     id="g12"
     transform="translate(-30.8301,-42.8672)">
    <path
       d="m 111.958,107.872 c -1.887,-0.308 -1.179,13.984 -1.179,14.626 0,15.782 -2.949,33.567 -2.949,35.415 0,1.848 4.325,2.052 5.898,1.923 5.307,-2.693 8.846,-1.923 14.153,-1.923 1.77,0 2.949,-0.385 2.949,-1.54 0,-2.696 -2.949,-3.465 -8.256,-2.696 l -10.616,1.925 c 0,-15.525 7.077,-40.031 4.128,-45.42 -0.396,-0.724 -1.769,-1.925 -4.128,-2.31 z"
       fill="#f7e1fe"
       id="path11" />
    <path
       d="m 111.958,107.872 c -1.887,-0.308 -1.179,13.984 -1.179,14.626 0,15.782 -2.949,33.567 -2.949,35.415 0,1.848 4.325,2.052 5.898,1.923 5.307,-2.693 8.846,-1.923 14.153,-1.923 1.77,0 2.949,-0.385 2.949,-1.54 0,-2.696 -2.949,-3.465 -8.256,-2.696 l -10.616,1.925 c 0,-15.525 7.077,-40.031 4.128,-45.42 -0.396,-0.724 -1.769,-1.925 -4.128,-2.31 z"
       stroke="url(#paint7_linear_4934_47812)"
       stroke-width="0.3"
       id="path12"
       style="stroke:url(#paint7_linear_4934_47812)" />
  </g>
  <g
     filter="url(#filter6_d_4934_47812)"
     id="g14"
     transform="translate(-30.8301,-42.8672)">
    <path
       d="m 135.64,115.463 c -1.734,0.384 -3.47,0.384 -3.903,-1.149 -0.316,-1.115 -2.169,-3.065 -5.205,-1.532 -3.036,1.533 -2.167,4.98 -0.433,5.364 0.978,0.216 2.168,0.335 2.168,0.335 2.602,0 5.678,-0.616 6.939,1.197 1.735,2.495 0.723,4.983 0.434,5.366 -0.982,1.3 -1.507,1.557 -3.036,2.682 -2.602,1.916 -7.893,0.383 -8.24,0.383 -0.434,0 -1.735,-1.15 -1.735,-2.3 0,-0.919 2.458,-1.148 3.036,-1.148 l 2.168,1.532 c 4.771,1.15 5.638,-1.61 5.638,-3.449 0,-1.84 -1.446,-1.916 -2.168,-1.916 l -8.24,-1.916 c -3.47,-0.048 -1.711,-7.099 2.168,-8.813 1.735,-0.766 2.327,-0.874 4.771,-0.767 5.638,1.534 6.397,2.684 6.505,3.066 0.434,1.533 -0.026,2.879 -0.867,3.065 z"
       fill="#f7e1fe"
       id="path13" />
    <path
       d="m 135.64,115.463 c -1.734,0.384 -3.47,0.384 -3.903,-1.149 -0.316,-1.115 -2.169,-3.065 -5.205,-1.532 -3.036,1.533 -2.167,4.98 -0.433,5.364 0.978,0.216 2.168,0.335 2.168,0.335 2.602,0 5.678,-0.616 6.939,1.197 1.735,2.495 0.723,4.983 0.434,5.366 -0.982,1.3 -1.507,1.557 -3.036,2.682 -2.602,1.916 -7.893,0.383 -8.24,0.383 -0.434,0 -1.735,-1.15 -1.735,-2.3 0,-0.919 2.458,-1.148 3.036,-1.148 l 2.168,1.532 c 4.771,1.15 5.638,-1.61 5.638,-3.449 0,-1.84 -1.446,-1.916 -2.168,-1.916 l -8.24,-1.916 c -3.47,-0.048 -1.711,-7.099 2.168,-8.813 1.735,-0.766 2.327,-0.874 4.771,-0.767 5.638,1.534 6.397,2.684 6.505,3.066 0.434,1.533 -0.026,2.879 -0.867,3.065 z"
       stroke="url(#paint8_linear_4934_47812)"
       stroke-width="0.2"
       id="path14"
       style="stroke:url(#paint8_linear_4934_47812)" />
  </g>
  <g
     filter="url(#filter7_d_4934_47812)"
     id="g16"
     transform="translate(-30.8301,-42.8672)">
    <path
       d="m 148.218,126.958 c -3.469,0.767 -3.469,-1.532 -3.469,-1.532 l 1.735,-10.73 -4.281,-0.995 c -0.49,0.995 -1.357,-0.207 -1.357,-1.035 0,-0.828 0.905,-1.035 1.357,-1.035 h 7.693 c 1.358,0 5.261,-1.456 5.261,-0.766 0,0.552 1.301,2.299 -0.867,3.831 h -6.505 c -0.081,3.105 0,6.651 0,6.898 0,0.247 2.757,4.851 0.433,5.364 z"
       fill="#f7e1fe"
       id="path15" />
    <path
       d="m 148.218,126.958 c -3.469,0.767 -3.469,-1.532 -3.469,-1.532 l 1.735,-10.73 -4.281,-0.995 c -0.49,0.995 -1.357,-0.207 -1.357,-1.035 0,-0.828 0.905,-1.035 1.357,-1.035 h 7.693 c 1.358,0 5.261,-1.456 5.261,-0.766 0,0.552 1.301,2.299 -0.867,3.831 h -6.505 c -0.081,3.105 0,6.651 0,6.898 0,0.247 2.757,4.851 0.433,5.364 z"
       stroke="#b190bc"
       stroke-width="0.2"
       id="path16" />
  </g>
  <g
     filter="url(#filter8_dddddd_4934_47812)"
     id="g18"
     transform="translate(-30.8301,-42.8672)">
    <path
       d="m 150.865,156.368 c 0.146,-2.51 -2.772,-7.955 -3.969,-10.309 l -6.798,5.145 c -1.327,2.038 -1.256,7.223 -3.628,6.728 -2.965,-0.618 -5.337,-3.866 -5.177,-4.464 0.127,-0.478 0.266,-0.997 1.22,-1.639 0.814,-1.093 6.744,-3.566 8.57,-5.711 0.824,-0.968 1.84,-1.981 2.939,-2.948 l -6.632,-6.662 c -1.864,-1.809 -0.843,-2.701 0.058,-3.145 0.721,-0.355 3.353,1.121 4.128,2.124 1.227,1.233 3.154,3.401 5.239,5.357 0.574,-0.428 1.797,-1.142 2.1,-1.218 2.122,-2.083 0.579,-1.396 2.036,-4.077 1.54,-2.836 4.927,-0.867 4.447,0.928 -0.479,1.794 -1.602,3.408 -2.663,4.45 -0.449,0.441 -1.309,1.541 -3.133,2.914 l 2.523,3.249 c 2.862,5.605 2.402,5.73 2.926,8.257 0.683,3.299 -4.404,4.764 -4.186,1.021 z"
       fill="#a153bb"
       id="path17" />
    <path
       d="m 150.865,156.368 c 0.146,-2.51 -2.772,-7.955 -3.969,-10.309 l -6.798,5.145 c -1.327,2.038 -1.256,7.223 -3.628,6.728 -2.965,-0.618 -5.337,-3.866 -5.177,-4.464 0.127,-0.478 0.266,-0.997 1.22,-1.639 0.814,-1.093 6.744,-3.566 8.57,-5.711 0.824,-0.968 1.84,-1.981 2.939,-2.948 l -6.632,-6.662 c -1.864,-1.809 -0.843,-2.701 0.058,-3.145 0.721,-0.355 3.353,1.121 4.128,2.124 1.227,1.233 3.154,3.401 5.239,5.357 0.574,-0.428 1.797,-1.142 2.1,-1.218 2.122,-2.083 0.579,-1.396 2.036,-4.077 1.54,-2.836 4.927,-0.867 4.447,0.928 -0.479,1.794 -1.602,3.408 -2.663,4.45 -0.449,0.441 -1.309,1.541 -3.133,2.914 l 2.523,3.249 c 2.862,5.605 2.402,5.73 2.926,8.257 0.683,3.299 -4.404,4.764 -4.186,1.021 z"
       stroke="#c487d9"
       stroke-width="0.2"
       id="path18" />
  </g>
  <g
     filter="url(#filter9_d_4934_47812)"
     id="g20"
     transform="translate(-30.8301,-42.8672)">
    <path
       d="m 126.53,132.867 c -1.04,0 -2.599,1.098 -2.599,1.647 l -1.101,15.109 c 0,0.549 2.66,0 3.7,0 1.04,0 1.3,-2.76 1.3,-3.171 v -11.938 c 0,-0.824 0,-1.647 -1.3,-1.647 z"
       fill="url(#paint9_linear_4934_47812)"
       id="path19"
       style="fill:url(#paint9_linear_4934_47812)" />
    <path
       d="m 126.53,132.867 c -1.04,0 -2.599,1.098 -2.599,1.647 l -1.101,15.109 c 0,0.549 2.66,0 3.7,0 1.04,0 1.3,-2.76 1.3,-3.171 v -11.938 c 0,-0.824 0,-1.647 -1.3,-1.647 z"
       stroke="#e8c1f6"
       stroke-width="0.2"
       id="path20" />
  </g>
  <g
     filter="url(#filter10_dddddd_4934_47812)"
     id="g22"
     transform="translate(-30.8301,-42.8672)">
    <path
       d="m 148.913,156.463 c 0.146,-2.511 -0.821,-8.05 -2.018,-10.404 l -4.317,5.039 c -1.327,2.038 -3.737,7.329 -6.109,6.835 -2.965,-0.619 -5.338,-3.867 -5.178,-4.465 0.128,-0.478 0.267,-0.996 1.221,-1.639 0.814,-1.093 6.744,-3.566 8.569,-5.71 0.824,-0.969 1.841,-1.982 2.939,-2.948 l -6.631,-6.663 c -1.864,-1.809 -0.843,-2.701 0.058,-3.145 0.721,-0.354 4.356,-1.003 5.131,0 1.228,1.233 2.151,5.526 4.236,7.482 0.574,-0.428 1.099,-1.168 1.402,-1.244 2.122,-2.083 1.277,-1.371 2.733,-4.052 1.541,-2.836 6.445,-4 6.809,-2.185 0.867,4.323 -1.542,3.28 -2.603,4.321 -0.449,0.441 -3.73,4.783 -5.554,6.156 l 2.523,3.249 c 2.862,5.606 4.243,5.697 4.766,8.223 0.683,3.3 -8.194,4.893 -7.977,1.15 z"
       fill="#f77199"
       id="path21" />
    <path
       d="m 148.913,156.463 c 0.146,-2.511 -0.821,-8.05 -2.018,-10.404 l -4.317,5.039 c -1.327,2.038 -3.737,7.329 -6.109,6.835 -2.965,-0.619 -5.338,-3.867 -5.178,-4.465 0.128,-0.478 0.267,-0.996 1.221,-1.639 0.814,-1.093 6.744,-3.566 8.569,-5.71 0.824,-0.969 1.841,-1.982 2.939,-2.948 l -6.631,-6.663 c -1.864,-1.809 -0.843,-2.701 0.058,-3.145 0.721,-0.354 4.356,-1.003 5.131,0 1.228,1.233 2.151,5.526 4.236,7.482 0.574,-0.428 1.099,-1.168 1.402,-1.244 2.122,-2.083 1.277,-1.371 2.733,-4.052 1.541,-2.836 6.445,-4 6.809,-2.185 0.867,4.323 -1.542,3.28 -2.603,4.321 -0.449,0.441 -3.73,4.783 -5.554,6.156 l 2.523,3.249 c 2.862,5.606 4.243,5.697 4.766,8.223 0.683,3.3 -8.194,4.893 -7.977,1.15 z"
       stroke="#ebb7c7"
       stroke-width="0.2"
       id="path22" />
  </g>
  <path
     d="m 169.9999,52 c 0,7.9998 3.33,20.7748 -25.5,29.9998 -12.5,4 -16.497,4.684 -23,12 -3.646,4.102 -10.172,11.694 -14.5,15 -5.884,4.495 -8,6.5 -13.5,12 -1.731,3.147 -11.717,15.234 -11,19 0.229,1.202 -6,4.18 -6,0"
     stroke="#bc9e1b"
     stroke-width="4"
     stroke-linecap="round"
     stroke-dasharray="8, 10"
     id="path23" />
  <g
     filter="url(#filter11_ddd_4934_47812)"
     id="g25"
     transform="translate(-30.8301,-42.8672)">
    <path
       d="m 149.298,155.428 c 0.082,-2.514 -1.027,-8.026 -2.284,-10.35 l -4.186,5.148 c -1.275,2.072 -3.55,7.422 -5.934,6.988 -2.979,-0.543 -5.434,-3.728 -5.289,-4.33 0.115,-0.482 0.241,-1.004 1.178,-1.671 0.786,-1.113 6.651,-3.736 8.421,-5.926 0.799,-0.989 1.79,-2.028 2.863,-3.022 l -6.799,-6.491 c -1.91,-1.762 -0.912,-2.68 -0.022,-3.146 0.711,-0.373 4.329,-1.114 5.13,-0.131 1.258,1.202 2.291,5.469 4.425,7.371 0.562,-0.442 1.069,-1.195 1.37,-1.279 2.068,-2.136 1.241,-1.403 2.628,-4.12 1.468,-2.874 6.341,-4.163 6.751,-2.358 0.977,4.299 -1.457,3.318 -2.491,4.386 -0.438,0.453 -3.608,4.877 -5.396,6.296 l 2.605,3.183 c 3.004,5.531 4.387,5.587 4.974,8.099 0.767,3.281 -8.067,5.1 -7.944,1.353 z"
       fill="#ce4a71"
       id="path24" />
    <path
       d="m 149.298,155.428 c 0.082,-2.514 -1.027,-8.026 -2.284,-10.35 l -4.186,5.148 c -1.275,2.072 -3.55,7.422 -5.934,6.988 -2.979,-0.543 -5.434,-3.728 -5.289,-4.33 0.115,-0.482 0.241,-1.004 1.178,-1.671 0.786,-1.113 6.651,-3.736 8.421,-5.926 0.799,-0.989 1.79,-2.028 2.863,-3.022 l -6.799,-6.491 c -1.91,-1.762 -0.912,-2.68 -0.022,-3.146 0.711,-0.373 4.329,-1.114 5.13,-0.131 1.258,1.202 2.291,5.469 4.425,7.371 0.562,-0.442 1.069,-1.195 1.37,-1.279 2.068,-2.136 1.241,-1.403 2.628,-4.12 1.468,-2.874 6.341,-4.163 6.751,-2.358 0.977,4.299 -1.457,3.318 -2.491,4.386 -0.438,0.453 -3.608,4.877 -5.396,6.296 l 2.605,3.183 c 3.004,5.531 4.387,5.587 4.974,8.099 0.767,3.281 -8.067,5.1 -7.944,1.353 z"
       stroke="#ebd0d8"
       stroke-width="0.2"
       id="path25" />
  </g>
  <g
     filter="url(#filter12_d_4934_47812)"
     id="g26"
     transform="translate(-30.8301,-42.8672)">
    <path
       d="m 107.899,190.307 c -1.489,0.569 -3.013,-0.747 -2.667,-2.303 l 4.413,-19.809 c 0.424,-1.905 3.046,-2.136 3.798,-0.335 l 3.378,8.1 c 0.253,0.607 0.788,1.05 1.43,1.187 l 8.845,1.88 c 1.949,0.414 2.16,3.113 0.299,3.824 z"
       fill="url(#paint10_linear_4934_47812)"
       id="path26"
       style="fill:url(#paint10_linear_4934_47812)" />
  </g>
  <g
     filter="url(#filter13_d_4934_47812)"
     id="g27"
     transform="translate(-30.8301,-42.8672)">
    <path
       d="m 188.648,178.476 c 0.656,1.449 -0.561,3.047 -2.133,2.8 l -18.407,-2.897 c -1.658,-0.26 -2.276,-2.324 -1.035,-3.454 l 5.922,-5.392 c 0.203,-0.184 0.365,-0.409 0.478,-0.658 l 3.581,-7.964 c 0.706,-1.571 2.936,-1.573 3.646,-0.004 z"
       fill="url(#paint11_linear_4934_47812)"
       id="path27"
       style="fill:url(#paint11_linear_4934_47812)" />
  </g>
  <defs
     id="defs111">
    <filter
       id="filter0_d_4934_47812"
       x="130.48801"
       y="81.156197"
       width="31.0273"
       height="29.9219"
       filterUnits="userSpaceOnUse"
       color-interpolation-filters="sRGB">
      <feFlood
         flood-opacity="0"
         result="BackgroundImageFix"
         id="feFlood27" />
      <feColorMatrix
         in="SourceAlpha"
         type="matrix"
         values="0 0 0 0 0 0 0 0 0 0 0 0 0 0 0 0 0 0 127 0"
         result="hardAlpha"
         id="feColorMatrix27" />
      <feOffset
         dy="4"
         id="feOffset27" />
      <feGaussianBlur
         stdDeviation="2"
         id="feGaussianBlur27" />
      <feComposite
         in2="hardAlpha"
         operator="out"
         id="feComposite27" />
      <feColorMatrix
         type="matrix"
         values="0 0 0 0 0 0 0 0 0 0 0 0 0 0 0 0 0 0 0.25 0"
         id="feColorMatrix28" />
      <feBlend
         mode="normal"
         in2="BackgroundImageFix"
         result="effect1_dropShadow_4934_47812"
         id="feBlend28" />
      <feBlend
         mode="normal"
         in="SourceGraphic"
         in2="effect1_dropShadow_4934_47812"
         result="shape"
         id="feBlend29" />
    </filter>
    <filter
       id="filter1_d_4934_47812"
       x="50.830101"
       y="109.211"
       width="14.0723"
       height="56.597698"
       filterUnits="userSpaceOnUse"
       color-interpolation-filters="sRGB">
      <feFlood
         flood-opacity="0"
         result="BackgroundImageFix"
         id="feFlood29" />
      <feColorMatrix
         in="SourceAlpha"
         type="matrix"
         values="0 0 0 0 0 0 0 0 0 0 0 0 0 0 0 0 0 0 127 0"
         result="hardAlpha"
         id="feColorMatrix29" />
      <feOffset
         dy="4"
         id="feOffset29" />
      <feGaussianBlur
         stdDeviation="2"
         id="feGaussianBlur29" />
      <feComposite
         in2="hardAlpha"
         operator="out"
         id="feComposite29" />
      <feColorMatrix
         type="matrix"
         values="0 0 0 0 0 0 0 0 0 0 0 0 0 0 0 0 0 0 0.25 0"
         id="feColorMatrix30" />
      <feBlend
         mode="normal"
         in2="BackgroundImageFix"
         result="effect1_dropShadow_4934_47812"
         id="feBlend30" />
      <feBlend
         mode="normal"
         in="SourceGraphic"
         in2="effect1_dropShadow_4934_47812"
         result="shape"
         id="feBlend31" />
    </filter>
    <filter
       id="filter2_d_4934_47812"
       x="52.357399"
       y="132.38699"
       width="26.3438"
       height="12.6406"
       filterUnits="userSpaceOnUse"
       color-interpolation-filters="sRGB">
      <feFlood
         flood-opacity="0"
         result="BackgroundImageFix"
         id="feFlood31" />
      <feColorMatrix
         in="SourceAlpha"
         type="matrix"
         values="0 0 0 0 0 0 0 0 0 0 0 0 0 0 0 0 0 0 127 0"
         result="hardAlpha"
         id="feColorMatrix31" />
      <feOffset
         dy="4"
         id="feOffset31" />
      <feGaussianBlur
         stdDeviation="2"
         id="feGaussianBlur31" />
      <feComposite
         in2="hardAlpha"
         operator="out"
         id="feComposite31" />
      <feColorMatrix
         type="matrix"
         values="0 0 0 0 0 0 0 0 0 0 0 0 0 0 0 0 0 0 0.25 0"
         id="feColorMatrix32" />
      <feBlend
         mode="normal"
         in2="BackgroundImageFix"
         result="effect1_dropShadow_4934_47812"
         id="feBlend32" />
      <feBlend
         mode="normal"
         in="SourceGraphic"
         in2="effect1_dropShadow_4934_47812"
         result="shape"
         id="feBlend33" />
    </filter>
    <filter
       id="filter3_d_4934_47812"
       x="69.4785"
       y="107.867"
       width="12.7715"
       height="59.054699"
       filterUnits="userSpaceOnUse"
       color-interpolation-filters="sRGB">
      <feFlood
         flood-opacity="0"
         result="BackgroundImageFix"
         id="feFlood33" />
      <feColorMatrix
         in="SourceAlpha"
         type="matrix"
         values="0 0 0 0 0 0 0 0 0 0 0 0 0 0 0 0 0 0 127 0"
         result="hardAlpha"
         id="feColorMatrix33" />
      <feOffset
         dy="4"
         id="feOffset33" />
      <feGaussianBlur
         stdDeviation="2"
         id="feGaussianBlur33" />
      <feComposite
         in2="hardAlpha"
         operator="out"
         id="feComposite33" />
      <feColorMatrix
         type="matrix"
         values="0 0 0 0 0 0 0 0 0 0 0 0 0 0 0 0 0 0 0.25 0"
         id="feColorMatrix34" />
      <feBlend
         mode="normal"
         in2="BackgroundImageFix"
         result="effect1_dropShadow_4934_47812"
         id="feBlend34" />
      <feBlend
         mode="normal"
         in="SourceGraphic"
         in2="effect1_dropShadow_4934_47812"
         result="shape"
         id="feBlend35" />
    </filter>
    <filter
       id="filter4_d_4934_47812"
       x="78.679703"
       y="104.719"
       width="30.3008"
       height="63.296902"
       filterUnits="userSpaceOnUse"
       color-interpolation-filters="sRGB">
      <feFlood
         flood-opacity="0"
         result="BackgroundImageFix"
         id="feFlood35" />
      <feColorMatrix
         in="SourceAlpha"
         type="matrix"
         values="0 0 0 0 0 0 0 0 0 0 0 0 0 0 0 0 0 0 127 0"
         result="hardAlpha"
         id="feColorMatrix35" />
      <feOffset
         dy="4"
         id="feOffset35" />
      <feGaussianBlur
         stdDeviation="2"
         id="feGaussianBlur35" />
      <feComposite
         in2="hardAlpha"
         operator="out"
         id="feComposite35" />
      <feColorMatrix
         type="matrix"
         values="0 0 0 0 0 0 0 0 0 0 0 0 0 0 0 0 0 0 0.25 0"
         id="feColorMatrix36" />
      <feBlend
         mode="normal"
         in2="BackgroundImageFix"
         result="effect1_dropShadow_4934_47812"
         id="feBlend36" />
      <feBlend
         mode="normal"
         in="SourceGraphic"
         in2="effect1_dropShadow_4934_47812"
         result="shape"
         id="feBlend37" />
    </filter>
    <filter
       id="filter5_d_4934_47812"
       x="103.68"
       y="107.719"
       width="31.3008"
       height="60.296902"
       filterUnits="userSpaceOnUse"
       color-interpolation-filters="sRGB">
      <feFlood
         flood-opacity="0"
         result="BackgroundImageFix"
         id="feFlood37" />
      <feColorMatrix
         in="SourceAlpha"
         type="matrix"
         values="0 0 0 0 0 0 0 0 0 0 0 0 0 0 0 0 0 0 127 0"
         result="hardAlpha"
         id="feColorMatrix37" />
      <feOffset
         dy="4"
         id="feOffset37" />
      <feGaussianBlur
         stdDeviation="2"
         id="feGaussianBlur37" />
      <feComposite
         in2="hardAlpha"
         operator="out"
         id="feComposite37" />
      <feColorMatrix
         type="matrix"
         values="0 0 0 0 0 0 0 0 0 0 0 0 0 0 0 0 0 0 0.25 0"
         id="feColorMatrix38" />
      <feBlend
         mode="normal"
         in2="BackgroundImageFix"
         result="effect1_dropShadow_4934_47812"
         id="feBlend38" />
      <feBlend
         mode="normal"
         in="SourceGraphic"
         in2="effect1_dropShadow_4934_47812"
         result="shape"
         id="feBlend39" />
    </filter>
    <filter
       id="filter6_d_4934_47812"
       x="117.102"
       y="109.195"
       width="23.6719"
       height="27.5938"
       filterUnits="userSpaceOnUse"
       color-interpolation-filters="sRGB">
      <feFlood
         flood-opacity="0"
         result="BackgroundImageFix"
         id="feFlood39" />
      <feColorMatrix
         in="SourceAlpha"
         type="matrix"
         values="0 0 0 0 0 0 0 0 0 0 0 0 0 0 0 0 0 0 127 0"
         result="hardAlpha"
         id="feColorMatrix39" />
      <feOffset
         dy="4"
         id="feOffset39" />
      <feGaussianBlur
         stdDeviation="2"
         id="feGaussianBlur39" />
      <feComposite
         in2="hardAlpha"
         operator="out"
         id="feComposite39" />
      <feColorMatrix
         type="matrix"
         values="0 0 0 0 0 0 0 0 0 0 0 0 0 0 0 0 0 0 0.25 0"
         id="feColorMatrix40" />
      <feBlend
         mode="normal"
         in2="BackgroundImageFix"
         result="effect1_dropShadow_4934_47812"
         id="feBlend40" />
      <feBlend
         mode="normal"
         in="SourceGraphic"
         in2="effect1_dropShadow_4934_47812"
         result="shape"
         id="feBlend41" />
    </filter>
    <filter
       id="filter7_d_4934_47812"
       x="136.746"
       y="110.578"
       width="22.898399"
       height="24.6367"
       filterUnits="userSpaceOnUse"
       color-interpolation-filters="sRGB">
      <feFlood
         flood-opacity="0"
         result="BackgroundImageFix"
         id="feFlood41" />
      <feColorMatrix
         in="SourceAlpha"
         type="matrix"
         values="0 0 0 0 0 0 0 0 0 0 0 0 0 0 0 0 0 0 127 0"
         result="hardAlpha"
         id="feColorMatrix41" />
      <feOffset
         dy="4"
         id="feOffset41" />
      <feGaussianBlur
         stdDeviation="2"
         id="feGaussianBlur41" />
      <feComposite
         in2="hardAlpha"
         operator="out"
         id="feComposite41" />
      <feColorMatrix
         type="matrix"
         values="0 0 0 0 0 0 0 0 0 0 0 0 0 0 0 0 0 0 0.25 0"
         id="feColorMatrix42" />
      <feBlend
         mode="normal"
         in2="BackgroundImageFix"
         result="effect1_dropShadow_4934_47812"
         id="feBlend42" />
      <feBlend
         mode="normal"
         in="SourceGraphic"
         in2="effect1_dropShadow_4934_47812"
         result="shape"
         id="feBlend43" />
    </filter>
    <filter
       id="filter8_dddddd_4934_47812"
       x="49.3848"
       y="51.412102"
       width="187.959"
       height="189.062"
       filterUnits="userSpaceOnUse"
       color-interpolation-filters="sRGB">
      <feFlood
         flood-opacity="0"
         result="BackgroundImageFix"
         id="feFlood43" />
      <feColorMatrix
         in="SourceAlpha"
         type="matrix"
         values="0 0 0 0 0 0 0 0 0 0 0 0 0 0 0 0 0 0 127 0"
         result="hardAlpha"
         id="feColorMatrix43" />
      <feOffset
         id="feOffset43" />
      <feGaussianBlur
         stdDeviation="0.973795"
         id="feGaussianBlur43" />
      <feColorMatrix
         type="matrix"
         values="0 0 0 0 0.533333 0 0 0 0 0.258824 0 0 0 0 0.627451 0 0 0 1 0"
         id="feColorMatrix44" />
      <feBlend
         mode="normal"
         in2="BackgroundImageFix"
         result="effect1_dropShadow_4934_47812"
         id="feBlend44" />
      <feColorMatrix
         in="SourceAlpha"
         type="matrix"
         values="0 0 0 0 0 0 0 0 0 0 0 0 0 0 0 0 0 0 127 0"
         result="hardAlpha"
         id="feColorMatrix45" />
      <feOffset
         id="feOffset45" />
      <feGaussianBlur
         stdDeviation="1.94759"
         id="feGaussianBlur45" />
      <feColorMatrix
         type="matrix"
         values="0 0 0 0 0.533333 0 0 0 0 0.258824 0 0 0 0 0.627451 0 0 0 1 0"
         id="feColorMatrix46" />
      <feBlend
         mode="normal"
         in2="effect1_dropShadow_4934_47812"
         result="effect2_dropShadow_4934_47812"
         id="feBlend46" />
      <feColorMatrix
         in="SourceAlpha"
         type="matrix"
         values="0 0 0 0 0 0 0 0 0 0 0 0 0 0 0 0 0 0 127 0"
         result="hardAlpha"
         id="feColorMatrix47" />
      <feOffset
         id="feOffset47" />
      <feGaussianBlur
         stdDeviation="6.81657"
         id="feGaussianBlur47" />
      <feColorMatrix
         type="matrix"
         values="0 0 0 0 0.533333 0 0 0 0 0.258824 0 0 0 0 0.627451 0 0 0 1 0"
         id="feColorMatrix48" />
      <feBlend
         mode="normal"
         in2="effect2_dropShadow_4934_47812"
         result="effect3_dropShadow_4934_47812"
         id="feBlend48" />
      <feColorMatrix
         in="SourceAlpha"
         type="matrix"
         values="0 0 0 0 0 0 0 0 0 0 0 0 0 0 0 0 0 0 127 0"
         result="hardAlpha"
         id="feColorMatrix49" />
      <feOffset
         id="feOffset49" />
      <feGaussianBlur
         stdDeviation="13.6331"
         id="feGaussianBlur49" />
      <feColorMatrix
         type="matrix"
         values="0 0 0 0 0.533333 0 0 0 0 0.258824 0 0 0 0 0.627451 0 0 0 1 0"
         id="feColorMatrix50" />
      <feBlend
         mode="normal"
         in2="effect3_dropShadow_4934_47812"
         result="effect4_dropShadow_4934_47812"
         id="feBlend50" />
      <feColorMatrix
         in="SourceAlpha"
         type="matrix"
         values="0 0 0 0 0 0 0 0 0 0 0 0 0 0 0 0 0 0 127 0"
         result="hardAlpha"
         id="feColorMatrix51" />
      <feOffset
         id="feOffset51" />
      <feGaussianBlur
         stdDeviation="23.3711"
         id="feGaussianBlur51" />
      <feColorMatrix
         type="matrix"
         values="0 0 0 0 0.533333 0 0 0 0 0.258824 0 0 0 0 0.627451 0 0 0 1 0"
         id="feColorMatrix52" />
      <feBlend
         mode="normal"
         in2="effect4_dropShadow_4934_47812"
         result="effect5_dropShadow_4934_47812"
         id="feBlend52" />
      <feColorMatrix
         in="SourceAlpha"
         type="matrix"
         values="0 0 0 0 0 0 0 0 0 0 0 0 0 0 0 0 0 0 127 0"
         result="hardAlpha"
         id="feColorMatrix53" />
      <feOffset
         id="feOffset53" />
      <feGaussianBlur
         stdDeviation="40.8994"
         id="feGaussianBlur53" />
      <feColorMatrix
         type="matrix"
         values="0 0 0 0 0.533333 0 0 0 0 0.258824 0 0 0 0 0.627451 0 0 0 1 0"
         id="feColorMatrix54" />
      <feBlend
         mode="normal"
         in2="effect5_dropShadow_4934_47812"
         result="effect6_dropShadow_4934_47812"
         id="feBlend54" />
      <feBlend
         mode="normal"
         in="SourceGraphic"
         in2="effect6_dropShadow_4934_47812"
         result="shape"
         id="feBlend55" />
    </filter>
    <filter
       id="filter9_d_4934_47812"
       x="118.73"
       y="132.76601"
       width="13.1992"
       height="25.2031"
       filterUnits="userSpaceOnUse"
       color-interpolation-filters="sRGB">
      <feFlood
         flood-opacity="0"
         result="BackgroundImageFix"
         id="feFlood55" />
      <feColorMatrix
         in="SourceAlpha"
         type="matrix"
         values="0 0 0 0 0 0 0 0 0 0 0 0 0 0 0 0 0 0 127 0"
         result="hardAlpha"
         id="feColorMatrix55" />
      <feOffset
         dy="4"
         id="feOffset55" />
      <feGaussianBlur
         stdDeviation="2"
         id="feGaussianBlur55" />
      <feComposite
         in2="hardAlpha"
         operator="out"
         id="feComposite55" />
      <feColorMatrix
         type="matrix"
         values="0 0 0 0 0 0 0 0 0 0 0 0 0 0 0 0 0 0 0.25 0"
         id="feColorMatrix56" />
      <feBlend
         mode="normal"
         in2="BackgroundImageFix"
         result="effect1_dropShadow_4934_47812"
         id="feBlend56" />
      <feBlend
         mode="normal"
         in="SourceGraphic"
         in2="effect1_dropShadow_4934_47812"
         result="shape"
         id="feBlend57" />
    </filter>
    <filter
       id="filter10_dddddd_4934_47812"
       x="-0.000137329"
       y="1.21275"
       width="289.22699"
       height="288.69199"
       filterUnits="userSpaceOnUse"
       color-interpolation-filters="sRGB">
      <feFlood
         flood-opacity="0"
         result="BackgroundImageFix"
         id="feFlood57" />
      <feColorMatrix
         in="SourceAlpha"
         type="matrix"
         values="0 0 0 0 0 0 0 0 0 0 0 0 0 0 0 0 0 0 127 0"
         result="hardAlpha"
         id="feColorMatrix57" />
      <feOffset
         id="feOffset57" />
      <feGaussianBlur
         stdDeviation="1.56169"
         id="feGaussianBlur57" />
      <feColorMatrix
         type="matrix"
         values="0 0 0 0 0.827451 0 0 0 0 0.372549 0 0 0 0 0.509804 0 0 0 1 0"
         id="feColorMatrix58" />
      <feBlend
         mode="normal"
         in2="BackgroundImageFix"
         result="effect1_dropShadow_4934_47812"
         id="feBlend58" />
      <feColorMatrix
         in="SourceAlpha"
         type="matrix"
         values="0 0 0 0 0 0 0 0 0 0 0 0 0 0 0 0 0 0 127 0"
         result="hardAlpha"
         id="feColorMatrix59" />
      <feOffset
         id="feOffset59" />
      <feGaussianBlur
         stdDeviation="3.12338"
         id="feGaussianBlur59" />
      <feColorMatrix
         type="matrix"
         values="0 0 0 0 0.827451 0 0 0 0 0.372549 0 0 0 0 0.509804 0 0 0 1 0"
         id="feColorMatrix60" />
      <feBlend
         mode="normal"
         in2="effect1_dropShadow_4934_47812"
         result="effect2_dropShadow_4934_47812"
         id="feBlend60" />
      <feColorMatrix
         in="SourceAlpha"
         type="matrix"
         values="0 0 0 0 0 0 0 0 0 0 0 0 0 0 0 0 0 0 127 0"
         result="hardAlpha"
         id="feColorMatrix61" />
      <feOffset
         id="feOffset61" />
      <feGaussianBlur
         stdDeviation="10.9318"
         id="feGaussianBlur61" />
      <feColorMatrix
         type="matrix"
         values="0 0 0 0 0.827451 0 0 0 0 0.372549 0 0 0 0 0.509804 0 0 0 1 0"
         id="feColorMatrix62" />
      <feBlend
         mode="normal"
         in2="effect2_dropShadow_4934_47812"
         result="effect3_dropShadow_4934_47812"
         id="feBlend62" />
      <feColorMatrix
         in="SourceAlpha"
         type="matrix"
         values="0 0 0 0 0 0 0 0 0 0 0 0 0 0 0 0 0 0 127 0"
         result="hardAlpha"
         id="feColorMatrix63" />
      <feOffset
         id="feOffset63" />
      <feGaussianBlur
         stdDeviation="21.8636"
         id="feGaussianBlur63" />
      <feColorMatrix
         type="matrix"
         values="0 0 0 0 0.827451 0 0 0 0 0.372549 0 0 0 0 0.509804 0 0 0 1 0"
         id="feColorMatrix64" />
      <feBlend
         mode="normal"
         in2="effect3_dropShadow_4934_47812"
         result="effect4_dropShadow_4934_47812"
         id="feBlend64" />
      <feColorMatrix
         in="SourceAlpha"
         type="matrix"
         values="0 0 0 0 0 0 0 0 0 0 0 0 0 0 0 0 0 0 127 0"
         result="hardAlpha"
         id="feColorMatrix65" />
      <feOffset
         id="feOffset65" />
      <feGaussianBlur
         stdDeviation="37.4805"
         id="feGaussianBlur65" />
      <feColorMatrix
         type="matrix"
         values="0 0 0 0 0.827451 0 0 0 0 0.372549 0 0 0 0 0.509804 0 0 0 1 0"
         id="feColorMatrix66" />
      <feBlend
         mode="normal"
         in2="effect4_dropShadow_4934_47812"
         result="effect5_dropShadow_4934_47812"
         id="feBlend66" />
      <feColorMatrix
         in="SourceAlpha"
         type="matrix"
         values="0 0 0 0 0 0 0 0 0 0 0 0 0 0 0 0 0 0 127 0"
         result="hardAlpha"
         id="feColorMatrix67" />
      <feOffset
         id="feOffset67" />
      <feGaussianBlur
         stdDeviation="65.5909"
         id="feGaussianBlur67" />
      <feColorMatrix
         type="matrix"
         values="0 0 0 0 0.827451 0 0 0 0 0.372549 0 0 0 0 0.509804 0 0 0 1 0"
         id="feColorMatrix68" />
      <feBlend
         mode="normal"
         in2="effect5_dropShadow_4934_47812"
         result="effect6_dropShadow_4934_47812"
         id="feBlend68" />
      <feBlend
         mode="normal"
         in="SourceGraphic"
         in2="effect6_dropShadow_4934_47812"
         result="shape"
         id="feBlend69" />
    </filter>
    <filter
       id="filter11_ddd_4934_47812"
       x="0.31626901"
       y="-0.0020904499"
       width="288.74399"
       height="288.797"
       filterUnits="userSpaceOnUse"
       color-interpolation-filters="sRGB">
      <feFlood
         flood-opacity="0"
         result="BackgroundImageFix"
         id="feFlood69" />
      <feColorMatrix
         in="SourceAlpha"
         type="matrix"
         values="0 0 0 0 0 0 0 0 0 0 0 0 0 0 0 0 0 0 127 0"
         result="hardAlpha"
         id="feColorMatrix69" />
      <feOffset
         id="feOffset69" />
      <feGaussianBlur
         stdDeviation="21.8636"
         id="feGaussianBlur69" />
      <feColorMatrix
         type="matrix"
         values="0 0 0 0 0.827451 0 0 0 0 0.372549 0 0 0 0 0.509804 0 0 0 1 0"
         id="feColorMatrix70" />
      <feBlend
         mode="normal"
         in2="BackgroundImageFix"
         result="effect1_dropShadow_4934_47812"
         id="feBlend70" />
      <feColorMatrix
         in="SourceAlpha"
         type="matrix"
         values="0 0 0 0 0 0 0 0 0 0 0 0 0 0 0 0 0 0 127 0"
         result="hardAlpha"
         id="feColorMatrix71" />
      <feOffset
         id="feOffset71" />
      <feGaussianBlur
         stdDeviation="37.4805"
         id="feGaussianBlur71" />
      <feColorMatrix
         type="matrix"
         values="0 0 0 0 0.827451 0 0 0 0 0.372549 0 0 0 0 0.509804 0 0 0 1 0"
         id="feColorMatrix72" />
      <feBlend
         mode="normal"
         in2="effect1_dropShadow_4934_47812"
         result="effect2_dropShadow_4934_47812"
         id="feBlend72" />
      <feColorMatrix
         in="SourceAlpha"
         type="matrix"
         values="0 0 0 0 0 0 0 0 0 0 0 0 0 0 0 0 0 0 127 0"
         result="hardAlpha"
         id="feColorMatrix73" />
      <feOffset
         id="feOffset73" />
      <feGaussianBlur
         stdDeviation="65.5909"
         id="feGaussianBlur73" />
      <feColorMatrix
         type="matrix"
         values="0 0 0 0 0.827451 0 0 0 0 0.372549 0 0 0 0 0.509804 0 0 0 1 0"
         id="feColorMatrix74" />
      <feBlend
         mode="normal"
         in2="effect2_dropShadow_4934_47812"
         result="effect3_dropShadow_4934_47812"
         id="feBlend74" />
      <feBlend
         mode="normal"
         in="SourceGraphic"
         in2="effect3_dropShadow_4934_47812"
         result="shape"
         id="feBlend75" />
    </filter>
    <filter
       id="filter12_d_4934_47812"
       x="101.182"
       y="166.629"
       width="31.5"
       height="31.8125"
       filterUnits="userSpaceOnUse"
       color-interpolation-filters="sRGB">
      <feFlood
         flood-opacity="0"
         result="BackgroundImageFix"
         id="feFlood75" />
      <feColorMatrix
         in="SourceAlpha"
         type="matrix"
         values="0 0 0 0 0 0 0 0 0 0 0 0 0 0 0 0 0 0 127 0"
         result="hardAlpha"
         id="feColorMatrix75" />
      <feOffset
         dy="4"
         id="feOffset75" />
      <feGaussianBlur
         stdDeviation="2"
         id="feGaussianBlur75" />
      <feComposite
         in2="hardAlpha"
         operator="out"
         id="feComposite75" />
      <feColorMatrix
         type="matrix"
         values="0 0 0 0 0 0 0 0 0 0 0 0 0 0 0 0 0 0 0.25 0"
         id="feColorMatrix76" />
      <feBlend
         mode="normal"
         in2="BackgroundImageFix"
         result="effect1_dropShadow_4934_47812"
         id="feBlend76" />
      <feBlend
         mode="normal"
         in="SourceGraphic"
         in2="effect1_dropShadow_4934_47812"
         result="shape"
         id="feBlend77" />
    </filter>
    <filter
       id="filter13_d_4934_47812"
       x="162.418"
       y="159.73"
       width="30.4121"
       height="29.570299"
       filterUnits="userSpaceOnUse"
       color-interpolation-filters="sRGB">
      <feFlood
         flood-opacity="0"
         result="BackgroundImageFix"
         id="feFlood77" />
      <feColorMatrix
         in="SourceAlpha"
         type="matrix"
         values="0 0 0 0 0 0 0 0 0 0 0 0 0 0 0 0 0 0 127 0"
         result="hardAlpha"
         id="feColorMatrix77" />
      <feOffset
         dy="4"
         id="feOffset77" />
      <feGaussianBlur
         stdDeviation="2"
         id="feGaussianBlur77" />
      <feComposite
         in2="hardAlpha"
         operator="out"
         id="feComposite77" />
      <feColorMatrix
         type="matrix"
         values="0 0 0 0 0 0 0 0 0 0 0 0 0 0 0 0 0 0 0.25 0"
         id="feColorMatrix78" />
      <feBlend
         mode="normal"
         in2="BackgroundImageFix"
         result="effect1_dropShadow_4934_47812"
         id="feBlend78" />
      <feBlend
         mode="normal"
         in="SourceGraphic"
         in2="effect1_dropShadow_4934_47812"
         result="shape"
         id="feBlend79" />
    </filter>
    <linearGradient
       id="paint0_linear_4934_47812"
       x1="159.93201"
       y1="169.179"
       x2="37.389099"
       y2="66.831596"
       gradientUnits="userSpaceOnUse"
       gradientTransform="translate(-30.8301,-42.8672)">
      <stop
         stop-color="#4E1261"
         id="stop79" />
      <stop
         offset="0.206731"
         stop-color="#7D1485"
         id="stop80" />
      <stop
         offset="0.572115"
         stop-color="#4D1248"
         id="stop81" />
      <stop
         offset="0.9375"
         stop-color="#28062B"
         id="stop82" />
    </linearGradient>
    <linearGradient
       id="paint1_linear_4934_47812"
       x1="147.828"
       y1="87.867203"
       x2="147.828"
       y2="218.867"
       gradientUnits="userSpaceOnUse"
       gradientTransform="translate(-30.8301,-42.8672)">
      <stop
         offset="0.375"
         stop-color="#64193D"
         id="stop83" />
      <stop
         offset="0.9999"
         stop-color="#CA337C"
         id="stop84" />
    </linearGradient>
    <linearGradient
       id="paint2_linear_4934_47812"
       x1="129.601"
       y1="95.518204"
       x2="161.649"
       y2="94.948402"
       gradientUnits="userSpaceOnUse">
      <stop
         offset="0.495192"
         stop-color="#AF2D77"
         id="stop85" />
      <stop
         offset="0.495292"
         stop-color="#BB3180"
         id="stop86" />
      <stop
         offset="1"
         stop-color="#DC3675"
         id="stop87" />
    </linearGradient>
    <linearGradient
       id="paint3_linear_4934_47812"
       x1="88.330101"
       y1="92.867203"
       x2="167.83"
       y2="166.367"
       gradientUnits="userSpaceOnUse"
       gradientTransform="translate(-30.8301,-42.8672)">
      <stop
         stop-color="#5098E1"
         id="stop88" />
      <stop
         offset="0.427885"
         stop-color="#2C537B"
         id="stop89" />
      <stop
         offset="1"
         stop-color="#4B8FD4"
         id="stop90" />
    </linearGradient>
    <linearGradient
       id="paint4_linear_4934_47812"
       x1="59.5989"
       y1="135.45599"
       x2="73.9104"
       y2="135.45599"
       gradientUnits="userSpaceOnUse">
      <stop
         stop-color="#F7E5FD"
         id="stop91" />
      <stop
         offset="0.653846"
         stop-color="#F4D1FF"
         id="stop92" />
      <stop
         offset="1"
         stop-color="#5A1B6E"
         id="stop93" />
    </linearGradient>
    <linearGradient
       id="paint5_linear_4934_47812"
       x1="92.258698"
       y1="111.683"
       x2="85.564697"
       y2="105.285"
       gradientUnits="userSpaceOnUse">
      <stop
         stop-color="#F6E2FC"
         id="stop94" />
      <stop
         offset="1"
         stop-color="#D79FEA"
         id="stop95" />
    </linearGradient>
    <linearGradient
       id="paint6_linear_4934_47812"
       x1="93.156601"
       y1="106.267"
       x2="117.496"
       y2="132.722"
       gradientUnits="userSpaceOnUse">
      <stop
         stop-color="#8842A0"
         id="stop96" />
      <stop
         offset="0.686992"
         stop-color="#622277"
         id="stop97" />
      <stop
         offset="0.910061"
         stop-color="#8842A0"
         id="stop98" />
    </linearGradient>
    <linearGradient
       id="paint7_linear_4934_47812"
       x1="113.728"
       y1="124.287"
       x2="122.983"
       y2="160.612"
       gradientUnits="userSpaceOnUse">
      <stop
         stop-color="#8842A0"
         id="stop99" />
      <stop
         offset="0.471154"
         stop-color="#632377"
         id="stop100" />
      <stop
         offset="0.892348"
         stop-color="#8842A0"
         id="stop101" />
    </linearGradient>
    <linearGradient
       id="paint8_linear_4934_47812"
       x1="129.41299"
       y1="113.931"
       x2="134.411"
       y2="128.90199"
       gradientUnits="userSpaceOnUse">
      <stop
         offset="0.153846"
         stop-color="#642378"
         id="stop102" />
      <stop
         offset="0.822115"
         stop-color="#8842A0"
         id="stop103" />
    </linearGradient>
    <linearGradient
       id="paint9_linear_4934_47812"
       x1="123.064"
       y1="134.98801"
       x2="136.25101"
       y2="145.87"
       gradientUnits="userSpaceOnUse">
      <stop
         offset="0.0480769"
         stop-color="#F0D2F2"
         id="stop104" />
      <stop
         offset="0.348719"
         stop-color="#FCEEFF"
         id="stop105" />
      <stop
         offset="1"
         stop-color="#FB98B5"
         id="stop106" />
    </linearGradient>
    <linearGradient
       id="paint10_linear_4934_47812"
       x1="129.78999"
       y1="188.974"
       x2="102.162"
       y2="166.23"
       gradientUnits="userSpaceOnUse">
      <stop
         offset="0.5"
         stop-color="#CF940E"
         id="stop107" />
      <stop
         offset="0.5001"
         stop-color="#D7A411"
         id="stop108" />
      <stop
         offset="1"
         stop-color="#F9EB21"
         id="stop109" />
    </linearGradient>
    <linearGradient
       id="paint11_linear_4934_47812"
       x1="186.534"
       y1="159.825"
       x2="168.108"
       y2="185.23801"
       gradientUnits="userSpaceOnUse">
      <stop
         offset="0.495192"
         stop-color="#0086B4"
         id="stop110" />
      <stop
         offset="0.495292"
         stop-color="#007EB6"
         id="stop111" />
    </linearGradient>
  </defs>
</svg>
