<?xml version="1.0" encoding="UTF-8" standalone="no"?>
<svg
   width="100%"
   height="100%"
   viewBox="0 0 651 651"
   version="1.1"
   xmlns="http://www.w3.org/2000/svg"
   xmlns:svg="http://www.w3.org/2000/svg">
  <defs
     id="defs4">
    <style
       id="style4">
      .star-core {
        fill: #000000;
      }
      .segment, .segment-curve {
        stroke: #000000;
        stroke-width: 8;
        fill: none;
      }
    </style>
  </defs>
  <!-- === Stars === -->
  <g
     fill="#000000"
     opacity="0.9"
     id="g17"
     transform="translate(-44.619143,40.115746)">
    <circle
       cx="200"
       cy="180"
       r="9"
       id="circle5" />
    <circle
       cx="340"
       cy="60"
       r="5"
       id="circle6" />
    <circle
       cx="500"
       cy="90"
       r="8"
       id="circle7" />
    <circle
       cx="380"
       cy="330"
       r="6"
       id="circle12" />
    <circle
       cx="575"
       cy="280"
       r="8"
       id="circle13" />
    <circle
       cx="200"
       cy="500"
       r="6"
       id="circle15" />
    <circle
       cx="450"
       cy="500"
       r="10"
       id="circle16" />
  </g>
  <!-- Outer circle container -->
  <circle
     cx="325.38086"
     cy="325.11575"
     r="320"
     fill="transparent"
     stroke="#000000"
     stroke-width="10"
     id="circle1"
     style="opacity:1;fill:none" />
  <!-- === CONSTELLATION (rotated -15°) === -->
  <g
     transform="matrix(0.61370075,-0.16444062,0.16444062,0.61370075,11.741213,190.89508)"
     id="g31">
    <polyline
       class="segment"
       points="         13.48874,246.602505         255.07079,227.768242         836.01074,229.329056         835.76636,259.66539         556.10309,406.368088         653.28589,543.91765         658.13461,584.84482         222.59482,583.85608         225.31027,542.13835         317.560669,451.51224         250.78139,347.239334       "
       id="polyline21" />
    <path
       class="segment-curve"
       d="M 250.78139,347.23933 Q 100,300 13.48874,246.6025"
       id="path21" />
    <!-- Stars -->
    <circle
       cx="13.48874"
       cy="246.60251"
       r="8"
       class="star-core"
       id="circle21" />
    <circle
       cx="255.07079"
       cy="227.76825"
       r="8"
       class="star-core"
       id="circle22" />
    <circle
       cx="836.01074"
       cy="229.32906"
       r="8"
       class="star-core"
       id="circle23" />
    <circle
       cx="835.76636"
       cy="259.66537"
       r="8"
       class="star-core"
       id="circle24" />
    <circle
       cx="556.10309"
       cy="406.3681"
       r="8"
       class="star-core"
       id="circle25" />
    <circle
       cx="653.28589"
       cy="543.91766"
       r="8"
       class="star-core"
       id="circle26" />
    <circle
       cx="658.13458"
       cy="584.84485"
       r="8"
       class="star-core"
       id="circle27" />
    <circle
       cx="222.59482"
       cy="583.85608"
       r="8"
       class="star-core"
       id="circle28" />
    <circle
       cx="225.31027"
       cy="542.13837"
       r="8"
       class="star-core"
       id="circle29" />
    <circle
       cx="317.56067"
       cy="451.51224"
       r="8"
       class="star-core"
       id="circle30" />
    <circle
       cx="250.78139"
       cy="347.23932"
       r="8"
       class="star-core"
       id="circle31" />
  </g>
</svg>
