<?xml version="1.0" encoding="UTF-8" standalone="no"?>
<svg
   width="100%"
   height="100%"
   viewBox="0 0 3200 600"
   version="1.1"
   xmlns="http://www.w3.org/2000/svg"
   xmlns:svg="http://www.w3.org/2000/svg">
  <defs
     id="defs4">
    <!-- Background gradient -->
    <linearGradient
       id="bg"
       x1="0"
       y1="0"
       x2="0"
       y2="1">
      <stop
         offset="0%"
         stop-color="#020314"
         id="stop1" />
      <stop
         offset="100%"
         stop-color="#000000"
         id="stop2" />
    </linearGradient>
    <!-- Nebula blur -->
    <filter
       id="blur30"
       x="-0.36"
       y="-0.6"
       width="1.72"
       height="2.2">
      <feGaussianBlur
         stdDeviation="60"
         id="feGaussianBlur2" />
    </filter>
    <!-- Star halo -->
    <filter
       id="star-glow"
       x="-0.72"
       y="-0.72"
       width="2.44"
       height="2.44">
      <feGaussianBlur
         stdDeviation="6"
         result="blur"
         id="feGaussianBlur3" />
      <feMerge
         id="feMerge4">
        <feMergeNode
           in="blur"
           id="feMergeNode3" />
        <feMergeNode
           in="SourceGraphic"
           id="feMergeNode4" />
      </feMerge>
    </filter>
    <style
       id="style4">
      .star-core {
        fill: #aa87de;
        filter: url(#star-glow);
      }
      .segment, .segment-curve {
        stroke: #e580ff;
        stroke-width: 3;
        fill: none;
      }
    </style>
  </defs>
  <!-- === Background === -->
  <rect
     width="3200"
     height="600"
     fill="url(#bg)"
     id="rect4" />
  <!-- === Content Group (centered) === -->
  <g transform="translate(1200, 0)">
  <!-- === Stars === -->
  <g
     fill="white"
     opacity="0.9"
     id="g17">
    <circle
       cx="100"
       cy="80"
       r="1.2"
       id="circle4" />
    <circle
       cx="220"
       cy="140"
       r="0.8"
       id="circle5" />
    <circle
       cx="340"
       cy="60"
       r="1"
       id="circle6" />
    <circle
       cx="500"
       cy="90"
       r="0.7"
       id="circle7" />
    <circle
       cx="700"
       cy="120"
       r="1.1"
       id="circle8" />
    <circle
       cx="640"
       cy="40"
       r="0.8"
       id="circle9" />
    <circle
       cx="60"
       cy="300"
       r="0.9"
       id="circle10" />
    <circle
       cx="180"
       cy="260"
       r="0.7"
       id="circle11" />
    <circle
       cx="420"
       cy="310"
       r="1.1"
       id="circle12" />
    <circle
       cx="530"
       cy="280"
       r="0.9"
       id="circle13" />
    <circle
       cx="760"
       cy="350"
       r="0.8"
       id="circle14" />
    <circle
       cx="300"
       cy="500"
       r="0.6"
       id="circle15" />
    <circle
       cx="450"
       cy="450"
       r="1"
       id="circle16" />
    <circle
       cx="620"
       cy="520"
       r="0.7"
       id="circle17" />
  </g>
  <!-- === Nebulae === -->
  <ellipse
     cx="280"
     cy="260"
     rx="240"
     ry="140"
     fill="#FF66CC"
     opacity="0.25"
     filter="url(#blur30)"
     id="ellipse17" />

  <ellipse
     cx="400"
     cy="180"
     rx="200"
     ry="120"
     fill="#FF99DD"
     opacity="0.18"
     filter="url(#blur30)"
     id="ellipse19" />

  <ellipse
     cx="200"
     cy="430"
     rx="230"
     ry="160"
     fill="#6633FF"
     opacity="0.12"
     filter="url(#blur30)"
     id="ellipse21" />

  <ellipse
     cx="800"
     cy="120"
     rx="180"
     ry="100"
     fill="#CC66FF"
     opacity="0.20"
     filter="url(#blur30)"
     id="ellipse22" />

  <ellipse
     cx="1200"
     cy="320"
     rx="220"
     ry="130"
     fill="#FF33CC"
     opacity="0.22"
     filter="url(#blur30)"
     id="ellipse23" />

  <ellipse
     cx="1600"
     cy="80"
     rx="190"
     ry="110"
     fill="#AA44DD"
     opacity="0.16"
     filter="url(#blur30)"
     id="ellipse24" />

  <ellipse
     cx="2000"
     cy="450"
     rx="250"
     ry="150"
     fill="#DD66FF"
     opacity="0.19"
     filter="url(#blur30)"
     id="ellipse25" />

  <ellipse
     cx="2400"
     cy="200"
     rx="210"
     ry="125"
     fill="#9966FF"
     opacity="0.21"
     filter="url(#blur30)"
     id="ellipse26" />

  <ellipse
     cx="2800"
     cy="380"
     rx="200"
     ry="140"
     fill="#FF77DD"
     opacity="0.17"
     filter="url(#blur30)"
     id="ellipse27" />

  <ellipse
     cx="600"
     cy="500"
     rx="170"
     ry="120"
     fill="#BB55EE"
     opacity="0.15"
     filter="url(#blur30)"
     id="ellipse28" />

  <ellipse
     cx="1400"
     cy="60"
     rx="180"
     ry="100"
     fill="#EE44CC"
     opacity="0.23"
     filter="url(#blur30)"
     id="ellipse29" />

  <ellipse
     cx="1800"
     cy="280"
     rx="230"
     ry="135"
     fill="#CC44FF"
     opacity="0.18"
     filter="url(#blur30)"
     id="ellipse30" />

  <ellipse
     cx="2200"
     cy="150"
     rx="195"
     ry="115"
     fill="#FF55DD"
     opacity="0.20"
     filter="url(#blur30)"
     id="ellipse31" />

  <ellipse
     cx="2600"
     cy="480"
     rx="240"
     ry="145"
     fill="#AA66EE"
     opacity="0.14"
     filter="url(#blur30)"
     id="ellipse32" />

  <ellipse
     cx="1000"
     cy="400"
     rx="205"
     ry="128"
     fill="#DD44FF"
     opacity="0.24"
     filter="url(#blur30)"
     id="ellipse33" />

  <!-- === CONSTELLATION (rotated -15°) === -->
  <g
     transform="matrix(0.61370075,-0.16444062,0.16444062,0.61370075,56.360356,150.77934)"
     id="g31">
    <polyline
       class="segment"
       points="         13.48874,246.602505         255.07079,227.768242         836.01074,229.329056         835.76636,259.66539         556.10309,406.368088         653.28589,543.91765         658.13461,584.84482         222.59482,583.85608         225.31027,542.13835         317.560669,451.51224         250.78139,347.239334       "
       id="polyline21" />
    <path
       class="segment-curve"
       d="M 250.78139,347.23933 Q 100,300 13.48874,246.6025"
       id="path21" />
    <!-- Stars -->
    <circle
       cx="13.48874"
       cy="246.60251"
       r="8"
       class="star-core"
       id="circle21" />
    <circle
       cx="255.07079"
       cy="227.76825"
       r="8"
       class="star-core"
       id="circle22" />
    <circle
       cx="836.01074"
       cy="229.32906"
       r="8"
       class="star-core"
       id="circle23" />
    <circle
       cx="835.76636"
       cy="259.66537"
       r="8"
       class="star-core"
       id="circle24" />
    <circle
       cx="556.10309"
       cy="406.3681"
       r="8"
       class="star-core"
       id="circle25" />
    <circle
       cx="653.28589"
       cy="543.91766"
       r="8"
       class="star-core"
       id="circle26" />
    <circle
       cx="658.13458"
       cy="584.84485"
       r="8"
       class="star-core"
       id="circle27" />
    <circle
       cx="222.59482"
       cy="583.85608"
       r="8"
       class="star-core"
       id="circle28" />
    <circle
       cx="225.31027"
       cy="542.13837"
       r="8"
       class="star-core"
       id="circle29" />
    <circle
       cx="317.56067"
       cy="451.51224"
       r="8"
       class="star-core"
       id="circle30" />
    <circle
       cx="250.78139"
       cy="347.23932"
       r="8"
       class="star-core"
       id="circle31" />
  </g>
  </g>
</svg>
